<?xml version="1.0" encoding="utf-8"?>
<!-- Generator: Adobe Illustrator 23.0.1, SVG Export Plug-In . SVG Version: 6.00 Build 0)  -->
<svg version="1.1" id="Layer_1" xmlns="http://www.w3.org/2000/svg" xmlns:xlink="http://www.w3.org/1999/xlink" x="0px" y="0px"
	 viewBox="0 0 310.47 288.04" style="enable-background:new 0 0 310.47 288.04;" xml:space="preserve">
<style type="text/css">
	.st0{fill:#C03B2B;}
</style>
<path class="st0" d="M230.47,0v37.6h-31.16V-0.23l-81.76-0.94V37.6H82.38V0C82.38,0,0,0,0,0v112.32l31.84,32.04l0.28,143.69
	l246.23,0l0.28-143.68l31.84-32.04V0H230.47z M119.12,96.69l-45.67,18.53l45.67,18.4v20.49l-73.93-31v-15.77l73.93-31.08V96.69z
	 M148.58,181.55h-23.51l37.04-129.97h23.28L148.58,181.55z M265.28,123.02l-73.93,31.08v-20.44l45.63-18.51l-45.63-18.42V76.25
	l73.93,30.93V123.02z"/>
</svg>
