<?xml version="1.0" encoding="utf-8"?>
<!-- Generator: Adobe Illustrator 23.0.1, SVG Export Plug-In . SVG Version: 6.00 Build 0)  -->
<svg version="1.1" id="Layer_1" xmlns="http://www.w3.org/2000/svg" xmlns:xlink="http://www.w3.org/1999/xlink" x="0px" y="0px"
	 viewBox="0 0 186.13 268.84" style="enable-background:new 0 0 186.13 268.84;" xml:space="preserve">
<style type="text/css">
	.st0{fill:#880000;}
	.st1{fill:#990000;}
	.st2{fill:#FFFFFF;}
</style>
<g id="Castle">
	<path id="turret-right" class="st0" d="M135.93,24.53c6.07,0.94,12.53,2.06,17.4,3.18L152.76,7.7L135.93,24.53L135.93,24.53z"/>
	<path id="turret-left" class="st0" d="M33.29,7.97l0,19.75c0,0,5.9-1.74,16.27-3.48L33.29,7.97z"/>
	<path id="turret" class="st1" d="M0,66.86V19.72c0,0,12.49-6.28,33.29-11.75l0,19.75c0,0,13.39-3.96,35.31-5.88l0.01-20.42l0,0
		c14.83-1.63,31.44-2.05,49.2-0.21L117.8,22c0,0,23,2.83,35.53,5.72L152.76,7.7c10.91,2.96,22.08,6.9,33.37,12.02v47.14l-28.07,7.23
		H27.13L0,66.86z"/>
	<path id="turret-shadow" class="st0" d="M0,66.86l27.13,7.23h130.93l28.07-7.23C80.66,14.87,0,66.86,0,66.86z"/>
	<path id="tower" class="st1" d="M11.23,242.26c22.97,16.72,51.25,26.58,81.83,26.58c30.58,0,58.86-9.86,81.83-26.57L158.06,74.09
		c0,0-60.79-27.27-130.93,0L11.23,242.26z"/>
</g>
<g id="code-icon">
	<path class="st2" d="M75.85,144.99L96.2,74.01h13.65l-20.22,70.97H75.85z M111.91,118.37l23.87-9.63l-23.87-9.58V87.04l41.04,17.07
		v9.2l-41.04,17.15V118.37z M32.74,113.35v-9.16l41.04-17.15v12.09l-23.9,9.64l23.9,9.57v12.12L32.74,113.35z"/>
	<path class="st0" d="M109.18,74.51l-19.94,69.97H76.51l20.06-69.97H109.18 M112.41,87.79l40.05,16.65v8.53l-40.05,16.73V118.7
		l24.71-9.97l-24.71-9.92V87.79 M73.28,87.79v11l-24.74,9.98l24.74,9.91v11.03l-40.05-16.69v-8.49L73.28,87.79 M110.51,73.51h-1.32
		H96.57h-0.75l-0.21,0.72l-20.06,69.97l-0.37,1.28h1.33h12.74H90l0.21-0.73l19.94-69.97L110.51,73.51L110.51,73.51z M74.28,86.29
		l-1.39,0.58L32.85,103.6l-0.61,0.26v0.67v8.49v0.67l0.62,0.26l40.05,16.69l1.38,0.58v-1.5v-11.03V118l-0.63-0.25l-22.43-8.98
		l22.43-9.05l0.63-0.25V98.8v-11V86.29L74.28,86.29z M111.41,86.29v1.5v11.03v0.68l0.63,0.25l22.41,8.99l-22.41,9.04l-0.63,0.25
		v0.68v11.01v1.5l1.39-0.58l40.05-16.73l0.61-0.26v-0.67v-8.53v-0.67l-0.62-0.26L112.8,86.87L111.41,86.29L111.41,86.29z"/>
</g>
</svg>
