<?xml version="1.0" standalone="no"?>
<!DOCTYPE svg PUBLIC "-//W3C//DTD SVG 20010904//EN"
 "http://www.w3.org/TR/2001/REC-SVG-20010904/DTD/svg10.dtd">
<svg version="1.0" xmlns="http://www.w3.org/2000/svg"
 width="152.000000pt" height="152.000000pt" viewBox="0 0 152.000000 152.000000"
 preserveAspectRatio="xMidYMid meet">
<metadata>
Created by potrace 1.10, written by Peter Selinger 2001-2011
</metadata>
<g transform="translate(0.000000,152.000000) scale(0.100000,-0.100000)"
fill="#ff5400" stroke="none">
<path d="M690 1485 c-214 -43 -409 -192 -504 -387 -64 -129 -80 -199 -80 -338
0 -134 17 -206 74 -325 107 -222 326 -376 572 -404 149 -17 318 17 445 90 66
38 167 120 190 155 16 25 16 26 -47 89 l-63 64 -39 -44 c-49 -55 -129 -109
-215 -142 -60 -23 -83 -27 -188 -27 -110 -1 -126 2 -190 28 -228 94 -358 283
-357 521 0 209 116 397 301 489 212 106 449 71 624 -93 l68 -64 65 64 64 63
-58 59 c-172 174 -421 250 -662 202z"/>
<path d="M620 1003 c-73 -65 -73 -65 21 -159 l84 -84 -84 -84 -84 -84 22 -31
c12 -17 38 -43 57 -58 l35 -26 85 84 84 84 84 -84 84 -84 30 21 c16 12 42 38
57 58 l28 36 -84 84 -84 84 85 85 84 84 -30 38 c-17 20 -42 46 -57 57 l-27 20
-85 -84 -85 -85 -83 83 c-45 45 -86 82 -90 82 -4 0 -25 -16 -47 -37z"/>
</g>
</svg>
